<svg width="1200" height="900" viewBox="0 0 1200 900" fill="none" xmlns="http://www.w3.org/2000/svg">
  <defs>
    <linearGradient id="bg" x1="140" y1="60" x2="1060" y2="860" gradientUnits="userSpaceOnUse">
      <stop stop-color="#12243D"/>
      <stop offset="1" stop-color="#0C1A2E"/>
    </linearGradient>
    <linearGradient id="card" x1="260" y1="250" x2="930" y2="780" gradientUnits="userSpaceOnUse">
      <stop stop-color="#1A3254"/>
      <stop offset="1" stop-color="#12243D"/>
    </linearGradient>
    <linearGradient id="chip" x1="0" y1="0" x2="1" y2="1">
      <stop stop-color="#7AA3FF"/>
      <stop offset="1" stop-color="#38BDF8"/>
    </linearGradient>
    <filter id="blur" x="0" y="0" width="1200" height="900" filterUnits="userSpaceOnUse" color-interpolation-filters="sRGB">
      <feGaussianBlur stdDeviation="70"/>
    </filter>
  </defs>

  <rect width="1200" height="900" rx="40" fill="url(#bg)"/>

  <g opacity="0.7" filter="url(#blur)">
    <circle cx="220" cy="120" r="130" fill="#5B8DF7"/>
    <circle cx="990" cy="750" r="170" fill="#38BDF8"/>
  </g>

  <rect x="180" y="130" width="840" height="640" rx="34" fill="url(#card)" stroke="rgba(255,255,255,0.16)"/>

  <rect x="230" y="190" width="330" height="110" rx="18" fill="rgba(91,141,247,0.16)" stroke="rgba(122,163,255,0.7)"/>
  <rect x="255" y="220" width="70" height="8" rx="4" fill="#9DBAFC"/>
  <rect x="255" y="240" width="140" height="8" rx="4" fill="#77A6FF"/>
  <rect x="255" y="260" width="110" height="8" rx="4" fill="#77A6FF"/>
  <rect x="468" y="224" width="66" height="40" rx="12" fill="url(#chip)"/>

  <rect x="610" y="190" width="360" height="110" rx="18" fill="rgba(56,189,248,0.16)" stroke="rgba(56,189,248,0.65)"/>
  <rect x="635" y="220" width="90" height="8" rx="4" fill="#9FE2FF"/>
  <rect x="635" y="240" width="190" height="8" rx="4" fill="#7FD8FF"/>
  <rect x="635" y="260" width="150" height="8" rx="4" fill="#7FD8FF"/>
  <rect x="884" y="224" width="58" height="40" rx="12" fill="url(#chip)"/>

  <rect x="230" y="350" width="740" height="44" rx="14" fill="rgba(255,255,255,0.08)"/>
  <rect x="255" y="367" width="150" height="10" rx="5" fill="rgba(255,255,255,0.65)"/>
  <rect x="742" y="364" width="200" height="16" rx="8" fill="rgba(91,141,247,0.65)"/>

  <rect x="230" y="416" width="740" height="44" rx="14" fill="rgba(255,255,255,0.06)"/>
  <rect x="255" y="433" width="190" height="10" rx="5" fill="rgba(255,255,255,0.5)"/>
  <rect x="742" y="430" width="170" height="16" rx="8" fill="rgba(56,189,248,0.62)"/>

  <rect x="230" y="482" width="740" height="44" rx="14" fill="rgba(255,255,255,0.06)"/>
  <rect x="255" y="499" width="120" height="10" rx="5" fill="rgba(255,255,255,0.5)"/>
  <rect x="742" y="496" width="220" height="16" rx="8" fill="rgba(34,211,165,0.65)"/>

  <rect x="230" y="550" width="740" height="170" rx="20" fill="rgba(11,18,31,0.8)" stroke="rgba(255,255,255,0.1)"/>
  <rect x="260" y="585" width="220" height="12" rx="6" fill="rgba(255,255,255,0.7)"/>
  <rect x="260" y="611" width="180" height="10" rx="5" fill="rgba(255,255,255,0.38)"/>
  <rect x="260" y="642" width="680" height="42" rx="12" fill="rgba(91,141,247,0.17)"/>
  <rect x="286" y="658" width="320" height="10" rx="5" fill="rgba(157,186,252,0.9)"/>

  <path d="M865 655L902 690L945 633" stroke="#22D3A5" stroke-width="16" stroke-linecap="round" stroke-linejoin="round"/>
</svg>
